<?xml version="1.0" encoding="UTF-8"?>
<svg width="32px" height="32px" viewBox="0 0 32 32" version="1.1" xmlns="http://www.w3.org/2000/svg" xmlns:xlink="http://www.w3.org/1999/xlink">
    <title>action-steps</title>
    <g id="action-steps" stroke="none" stroke-width="1" fill="none" fill-rule="evenodd">
        <path d="M29.4034238,4.30928792 C30.2623051,4.30928792 30.9586921,5.0056002 30.9586921,5.86455622 C30.9584432,6.72328828 30.2621807,7.41982451 29.4034238,7.41982451 L14.4728481,7.41982451 C13.6139668,7.41982451 12.9178287,6.72328828 12.9175798,5.86455622 C12.9175798,5.0056002 13.6138424,4.30928792 14.4728481,4.30928792 L29.4034238,4.30928792 Z M29.4034238,14.263117 C30.2623051,14.263117 30.9586921,14.9593795 30.9586921,15.8183853 C30.9584432,16.6771422 30.2621807,17.3736536 29.4034238,17.3736536 L14.4728481,17.3736536 C13.6139668,17.3736536 12.9178287,16.6771422 12.9175798,15.8183853 C12.9175798,14.9593795 13.6138424,14.263117 14.4728481,14.263117 L29.4034238,14.263117 Z M29.4447317,24.5273901 C30.3034886,24.5275145 31,25.223777 31,26.0826584 C31,26.9415397 30.3034886,27.6378022 29.4447317,27.6379267 L14.4679957,27.6379267 C13.6089899,27.6379267 12.9127274,26.9416641 12.9127274,26.0826584 C12.9127274,25.2236526 13.6089899,24.5273901 14.4679957,24.5273901 L29.4447317,24.5273901 Z" id="形状结合" fill="#000000" fill-rule="nonzero"></path>
        <path d="M5.2408253,18.5128565 C6.36545847,18.5128565 7.44437919,18.959654 8.23958165,19.7547071 C9.03488365,20.5500091 9.48130786,21.6287432 9.48130786,22.7533888 C9.48130786,23.6316799 9.09634785,24.2995744 8.72930453,24.766777 C8.40104338,25.1843354 7.93965127,25.6109766 7.68308177,25.8675336 C7.6500852,25.9005053 7.6156329,25.9324817 7.57979951,25.9623428 L6.85198372,26.5686486 L7.92608933,26.5686486 C8.78492093,26.5686486 9.48118344,27.2651599 9.48130786,28.1239169 C9.48130786,28.9829227 8.78504535,29.6791852 7.92608933,29.6791852 L2.55556127,29.6791852 C1.90089286,29.6790608 1.31550231,29.2693409 1.09263859,28.6537035 C0.869924168,28.0381905 1.05765127,27.3486467 1.56042596,26.9295953 L5.54094231,23.6100306 C5.61207407,23.5394836 5.68249661,23.4719228 5.7462875,23.4095876 C5.82962499,23.3279672 5.90364332,23.2550562 5.97350598,23.184758 C6.11512249,23.0422955 6.21275601,22.9355419 6.2833403,22.8457096 C6.33460195,22.7805127 6.35710979,22.737214 6.36839482,22.7156891 C6.35881436,22.429893 6.24305263,22.1580321 6.04033274,21.9551007 L6.04033274,21.9538565 C5.82836834,21.7420912 5.54033265,21.6233931 5.2408253,21.6233931 C4.94135528,21.6235175 4.65320761,21.7420912 4.44131786,21.9538565 C4.2295152,22.1658707 4.1108669,22.4537819 4.11082957,22.7533888 C4.1107798,23.6122702 3.41447996,24.3086571 2.55556127,24.3086571 C1.69679189,24.3085327 1.0003303,23.6122702 1.00029298,22.7533888 C1.0003303,21.6287432 1.4470158,20.5498847 2.24206895,19.7547071 C3.03718432,18.9595296 4.1162419,18.5129809 5.2408253,18.5128565 Z M4.34143231,2.45593068 C4.78620172,2.01139768 5.45542744,1.87755751 6.03642591,2.11815129 C6.61739949,2.35883217 6.99613843,2.92671662 6.99632506,3.55555514 L6.99632506,12.0087245 C6.99612599,12.867357 6.29981371,13.5638684 5.44105676,13.5639928 C4.58222517,13.5639928 3.88598754,12.8674814 3.88578847,12.0087245 L3.88578847,7.31007234 L3.72297054,7.47289027 C3.11561961,8.08016655 2.13107257,8.08016655 1.52372163,7.47289027 C0.916582217,6.86551445 0.91648268,5.88094252 1.52372163,5.27364136 L4.34143231,2.45593068 Z" id="形状结合" fill="#000000" fill-rule="nonzero"></path>
    </g>
</svg>