<svg width="32" height="32" viewBox="0 0 32 32" fill="none" xmlns="http://www.w3.org/2000/svg">
<path d="M19 6H8.5C7.11931 6 6.00003 7.11932 6 8.5V24.5C6 25.8807 7.11929 27 8.5 27H23C24.3807 27 25.5 25.8807 25.5 24.5V14H28.5V24.5C28.5 27.5376 26.0376 30 23 30H8.5C5.46243 30 3 27.5376 3 24.5V8.5C3.00003 5.46246 5.46245 3 8.5 3H19V6Z" fill="black"/>
<path d="M20 20.5H10V17.5H20V20.5Z" fill="black"/>
<path d="M15 15.5H10V12.5H15V15.5Z" fill="black"/>
<path d="M24.5361 2.32227C24.6955 1.89253 25.3035 1.89262 25.4629 2.32227L25.8125 3.26758C26.3129 4.61973 27.3794 5.68592 28.7314 6.18653L29.6768 6.53614C30.107 6.69533 30.107 7.30468 29.6768 7.46387L28.7314 7.81348C27.3793 8.31408 26.3129 9.38024 25.8125 10.7324L25.4629 11.6777C25.3035 12.1075 24.6954 12.1076 24.5361 11.6777L24.1875 10.7324C23.6871 9.38003 22.6199 8.31405 21.2676 7.81348L20.3223 7.46387C19.8924 7.30455 19.8925 6.69547 20.3223 6.53614L21.2676 6.18653C22.6199 5.68595 23.6871 4.61994 24.1875 3.26758L24.5361 2.32227Z" fill="black"/>
</svg>
