<svg width="32" height="32" viewBox="0 0 32 32" fill="none" xmlns="http://www.w3.org/2000/svg">
<path fill-rule="evenodd" clip-rule="evenodd" d="M15.9941 12.2422C18.0631 12.2425 19.7401 13.92 19.7402 15.9883C19.74 18.0564 18.063 19.7331 15.9941 19.7334C13.9249 19.7334 12.2473 18.0566 12.2471 15.9883C12.2472 13.9198 13.9249 12.2422 15.9941 12.2422ZM15.9941 15.1299C15.52 15.1299 15.1349 15.5145 15.1348 15.9883C15.135 16.462 15.52 16.8457 15.9941 16.8457C16.4679 16.8454 16.8523 16.4618 16.8525 15.9883C16.8524 15.5146 16.468 15.1302 15.9941 15.1299Z" fill="black"/>
<path fill-rule="evenodd" clip-rule="evenodd" d="M24.666 1.90233C26.1239 1.94053 27.5186 2.37946 28.5606 3.42089C29.6025 4.46236 30.0409 5.85625 30.0791 7.31347C30.117 8.7605 29.7679 10.3546 29.1455 11.9775C28.65 13.2693 27.9644 14.6196 27.1133 15.9853C27.9729 17.3609 28.6641 18.7216 29.1631 20.0225C29.7855 21.6454 30.1355 23.2395 30.0977 24.6865C30.0595 26.1436 29.6207 27.5376 28.5791 28.5791C27.5372 29.6205 26.1424 30.0594 24.6846 30.0976C23.2369 30.1355 21.6422 29.7853 20.0186 29.1631C18.7159 28.6638 17.3531 27.9727 15.9756 27.1123C14.6146 27.9586 13.2688 28.6404 11.9814 29.1338C10.3579 29.7559 8.76304 30.1052 7.31543 30.0674C5.85763 30.0291 4.46284 29.5913 3.4209 28.5498C2.37919 27.5083 1.94061 26.1144 1.90235 24.6572C1.86452 23.2103 2.21452 21.616 2.83692 19.9932C3.33231 18.7018 4.01632 17.3506 4.86719 15.9853C4.02469 14.6299 3.34633 13.2891 2.8545 12.0068C2.23211 10.384 1.88303 8.78974 1.9209 7.34276C1.95922 5.88567 2.39762 4.49158 3.43946 3.45019C4.48145 2.40895 5.87622 1.97073 7.33399 1.93261C8.78144 1.89482 10.3757 2.2441 11.999 2.8662C13.2806 3.35734 14.6209 4.03401 15.9756 4.87499C17.3468 4.02002 18.7041 3.3339 20.001 2.83691C21.6244 2.2148 23.2186 1.86456 24.666 1.90233ZM25.2979 18.5908C24.3669 19.7973 23.3168 20.9951 22.1602 22.1514C20.9988 23.3122 19.795 24.3654 18.583 25.2988C19.4362 25.7735 20.2646 26.1657 21.0527 26.4678C22.4501 27.0032 23.6558 27.2359 24.6084 27.2109C25.5502 27.1863 26.1566 26.9173 26.5361 26.5381C26.9155 26.1588 27.1852 25.5526 27.21 24.6113C27.2349 23.6591 27.0016 22.4526 26.4658 21.0557C26.164 20.2689 25.7719 19.4424 25.2979 18.5908ZM6.68262 18.5947C6.21703 19.4345 5.832 20.25 5.53418 21.0264C4.99842 22.4232 4.76516 23.6288 4.79004 24.581C4.81473 25.5227 5.08443 26.1284 5.46387 26.5078C5.84341 26.8871 6.44948 27.157 7.3916 27.1816C8.34412 27.2065 9.55002 26.9739 10.9473 26.4385C11.7214 26.1418 12.5339 25.7563 13.3711 25.293C12.1746 24.3683 10.9866 23.3269 9.83985 22.1807C8.67503 21.0163 7.61845 19.8099 6.68262 18.5947ZM15.9785 8.34862C14.6059 9.33494 13.2144 10.5118 11.8652 11.8603C10.5113 13.2137 9.33071 14.6105 8.3418 15.9873C9.33442 17.3722 10.5206 18.778 11.8828 20.1396C13.2261 21.4824 14.6117 22.654 15.9785 23.6377C17.3591 22.6477 18.7599 21.466 20.1172 20.1094C21.4696 18.7575 22.6485 17.3626 23.6367 15.9873C22.6522 14.6201 21.479 13.2343 20.1348 11.8906C18.7715 10.528 17.365 9.34125 15.9785 8.34862ZM24.5908 4.78905C23.6382 4.76415 22.4317 4.99667 21.0342 5.53222C20.2526 5.83177 19.4317 6.22012 18.5859 6.68944C19.8031 7.62569 21.0115 8.68292 22.1777 9.84862C23.3257 10.9961 24.3682 12.1846 25.2939 13.3818C25.7613 12.5396 26.1496 11.7228 26.4482 10.9443C26.984 9.54741 27.2174 8.34086 27.1924 7.38866C27.1676 6.44736 26.898 5.84118 26.5186 5.46191C26.139 5.08273 25.5327 4.81375 24.5908 4.78905ZM7.40918 4.81835C6.46722 4.84302 5.861 5.11295 5.48145 5.49218C5.10205 5.87152 4.83231 6.47749 4.80762 7.41894C4.78269 8.37113 5.016 9.57675 5.55176 10.9736C5.84629 11.7414 6.2269 12.547 6.68555 13.3769C7.61612 12.1713 8.66632 10.9748 9.82227 9.81933C10.9739 8.66823 12.1665 7.6219 13.3682 6.69433C12.5384 6.23626 11.7334 5.85571 10.9658 5.56151C9.56829 5.02594 8.36185 4.79348 7.40918 4.81835Z" fill="black"/>
</svg>
