<svg width="32" height="32" viewBox="0 0 32 32" fill="none" xmlns="http://www.w3.org/2000/svg">
  <path
    d="M5.5 24.2203C5.50007 21.8992 7.349 20.2054 9.40625 19.1813C11.5548 18.1118 14.4182 17.4938 17.5 17.4938V20.4938C14.7808 20.4938 12.3943 21.045 10.7432 21.8668C9.0009 22.7341 8.50008 23.654 8.5 24.2203V25.194H15V28.194H5.5V24.2203ZM21 10.4938C21 10.0054 20.9037 9.52143 20.7158 9.06994C20.5279 8.61828 20.2521 8.20718 19.9043 7.86096C19.5563 7.5146 19.1428 7.23913 18.6875 7.05139C18.232 6.86361 17.7433 6.76721 17.25 6.76721C16.2534 6.76728 15.2984 7.16138 14.5957 7.86096C13.8933 8.5602 13.5 9.5077 13.5 10.4938C13.5 11.4799 13.8933 12.4273 14.5957 13.1266C15.2984 13.8262 16.2534 14.2203 17.25 14.2203C17.7433 14.2203 18.232 14.1239 18.6875 13.9362C19.1428 13.7484 19.5564 13.4729 19.9043 13.1266C20.252 12.7804 20.5279 12.3692 20.7158 11.9176C20.9036 11.4661 21 10.9821 21 10.4938ZM24 10.4938C24 11.3779 23.8251 12.2534 23.4854 13.0699C23.1456 13.8863 22.6476 14.6282 22.0205 15.2526C21.3934 15.8768 20.6487 16.3721 19.8301 16.7096C19.0117 17.0469 18.1344 17.2204 17.249 17.2203C15.4612 17.2201 13.7456 16.513 12.4795 15.2526C11.2129 13.9916 10.5 12.2797 10.5 10.4938C10.5 8.70787 11.2129 6.9959 12.4795 5.73498C13.7456 4.47464 15.4613 3.76747 17.249 3.76721C18.1344 3.76714 19.0117 3.94065 19.8301 4.27795C20.6487 4.61544 21.3934 5.11078 22.0205 5.73498C22.6477 6.35932 23.1456 7.10117 23.4854 7.9176C23.8251 8.73414 24 9.60965 24 10.4938Z"
    fill="currentColor" />
  <path
    d="M0 21.2446C0.000179019 19.2681 1.39518 17.7654 3.01367 16.7905C4.67959 15.7872 6.90786 15.121 9.34961 14.8745H9.35156L10.3516 14.7749L10.6484 17.7593L9.64941 17.8579L9.65039 17.8589C7.52643 18.0733 5.75411 18.6416 4.56152 19.3599C3.32207 20.1063 3.00019 20.8121 3 21.2446V22.1001H4.5V25.1001H0V21.2446Z"
    fill="currentColor" />
  <path
    d="M5.00037 8.24463C5.00043 6.52466 5.6871 4.87682 6.90662 3.6626C8.12589 2.44865 9.77789 1.76735 11.4994 1.76709C12.3521 1.76702 13.1975 1.93431 13.9857 2.25928L12.8422 5.03271C12.4171 4.85745 11.9608 4.76709 11.5004 4.76709C10.57 4.76716 9.67864 5.13563 9.02283 5.78857C8.36749 6.44121 8.00043 7.3247 8.00037 8.24463C8.00037 9.16476 8.36728 10.0489 9.02283 10.7017C9.38509 11.0623 9.8193 11.3364 10.2924 11.5093L9.26208 14.3267C8.38585 14.0064 7.58021 13.4982 6.90662 12.8276C5.687 11.6134 5.00037 9.96472 5.00037 8.24463Z"
    fill="currentColor" />
  <path
    d="M29 22.5249C28.9999 21.0018 27.7653 19.7672 26.2422 19.7671H23.5742C22.2144 19.7671 21.0001 20.9387 21 22.5249C21 23.2197 21.0686 23.68 21.2051 24.0464C21.3337 24.3915 21.5566 24.7442 22.0107 25.1587C22.3426 25.4615 23.1043 25.8391 24 26.186V25.2827H26.4258C27.7857 25.2827 29 24.1112 29 22.5249ZM32 22.5249C32 25.4491 29.8578 27.9537 27 28.2524V30.2329L25.1035 29.7134H25.1016C25.1008 29.7132 25.0997 29.7127 25.0986 29.7124C25.0962 29.7117 25.0927 29.7105 25.0889 29.7095C25.081 29.7073 25.0702 29.7045 25.0566 29.7007C25.0287 29.6928 24.9886 29.681 24.9385 29.6665C24.8381 29.6374 24.6952 29.5954 24.5215 29.5415C24.175 29.4339 23.6976 29.278 23.1777 29.0845C22.2199 28.7279 20.8317 28.1441 19.9893 27.3755C19.242 26.6935 18.7145 25.9555 18.3936 25.0942C18.0805 24.2542 18 23.3916 18 22.5249C18.0001 19.408 20.4341 16.7671 23.5742 16.7671H26.2422C29.4221 16.7672 31.9999 19.345 32 22.5249Z"
    fill="currentColor" />
</svg>
