<svg width="48" height="48" viewBox="0 0 48 48" fill="none" xmlns="http://www.w3.org/2000/svg">
<path d="M37.5 17C41.6421 17 45 20.3579 45 24.5V45.8359L39.3438 40.8184H23.5C19.3579 40.8184 16.0001 37.4604 16 33.3184V32H19V33.3184C19.0001 35.8036 21.0148 37.8184 23.5 37.8184H40.4834L42 39.1641V24.5C42 22.0147 39.9853 20 37.5 20H37V17H37.5ZM27.5 2C31.6421 2 35 5.35786 35 9.5V22.5C35 26.6421 31.6421 30 27.5 30H8.06348L2 35.3057V9.5C2 5.35786 5.35786 2 9.5 2H27.5ZM9.5 5C7.01472 5 5 7.01472 5 9.5V28.6943L6.93652 27H27.5C29.9853 27 32 24.9853 32 22.5V9.5C32 7.01472 29.9853 5 27.5 5H9.5ZM21.5 20.5H11.5V17.5H21.5V20.5ZM25.5 14H11.5V11H25.5V14Z" fill="black"/>
</svg>
