<svg width="32" height="32" viewBox="0 0 32 32" fill="none" xmlns="http://www.w3.org/2000/svg">
<path d="M8 20.5C9.933 20.5 11.5 22.067 11.5 24V30H8.5V25.6211L4.06055 30.0605L1.93945 27.9395L6.37891 23.5H2V20.5H8Z" fill="black"/>
<path d="M30 24.498C29.9999 27.5355 27.5374 29.998 24.5 29.998H20V26.998H24.5C25.8806 26.998 26.9999 25.8786 27 24.498V19.998H30V24.498Z" fill="black"/>
<path d="M12 5H7.5C6.11929 5 5 6.11929 5 7.5V11.998H2V7.5C2 4.46243 4.46244 2 7.5 2H12V5Z" fill="black"/>
<path d="M30.0605 4.06055L25.6211 8.5H30V11.5H24C22.067 11.5 20.5 9.933 20.5 8V2H23.5V6.37891L27.9395 1.93945L30.0605 4.06055Z" fill="black"/>
</svg>
