<svg width="30" height="27" viewBox="0 0 30 27" fill="none" xmlns="http://www.w3.org/2000/svg">
<path d="M16.9189 22C17.7471 22.0003 18.4189 22.6718 18.4189 23.5C18.4189 24.3282 17.7471 24.9997 16.9189 25H3.89844C3.07001 25 2.39844 24.3284 2.39844 23.5C2.39844 22.6716 3.07001 22 3.89844 22H16.9189Z" fill="black"/>
<path d="M26.4961 11.5C27.3244 11.5001 27.9961 12.1717 27.9961 13C27.9961 13.8283 27.3244 14.4999 26.4961 14.5H3.5C2.67157 14.5 2 13.8284 2 13C2 12.1716 2.67157 11.5 3.5 11.5H26.4961Z" fill="black"/>
<path d="M26.5908 1.5C27.4191 1.50022 28.0908 2.17171 28.0908 3C28.0908 3.82829 27.4191 4.49978 26.5908 4.5H13.3203C12.4919 4.5 11.8203 3.82843 11.8203 3C11.8203 2.17157 12.4919 1.5 13.3203 1.5H26.5908Z" fill="black"/>
<path d="M24.7567 26.6629C24.8765 26.8288 25.1235 26.8288 25.2433 26.6629L28.9869 21.4756C29.1301 21.2772 28.9883 21 28.7437 21H21.2563C21.0117 21 20.8699 21.2772 21.0131 21.4756L24.7567 26.6629Z" fill="black"/>
<path d="M4.75673 0.337079C4.87648 0.171161 5.12352 0.171161 5.24327 0.337078L8.98692 5.52444C9.13011 5.72285 8.98834 6 8.74366 6H1.25635C1.01166 6 0.86989 5.72285 1.01308 5.52444L4.75673 0.337079Z" fill="black"/>
</svg>
