<svg width="32" height="32" viewBox="0 0 32 32" xmlns="http://www.w3.org/2000/svg">
<path d="M15.751 1C24.0349 1.00035 30.751 7.71595 30.751 16C30.751 24.284 24.0349 30.9996 15.751 31C8.57391 31 2.57718 25.9605 1.09961 19.2285L4.0293 18.5859C5.21125 23.9708 10.0127 28 15.751 28C22.3781 27.9996 27.751 22.6272 27.751 16C27.751 9.3728 22.3781 4.00035 15.751 4C11.076 4 7.02238 6.67386 5.04102 10.5811L7.15137 11.6094L0.529297 15.6504L0 8.125L2.34277 9.2666C4.80833 4.36628 9.88556 1 15.751 1Z"/>
<path d="M16.125 15.625H21.375V18.625H13.125V9.25H16.125V15.625Z"/>
</svg>
