<svg width="32" height="32" viewBox="0 0 32 32" xmlns="http://www.w3.org/2000/svg">
<path d="M19.7119 5.50391H12.2881C7.82677 5.50402 4.00017 9.47715 4 14.6484C4.0002 17.8985 6.0388 20.5359 8.34766 22.7285C9.4013 23.729 11.2518 24.9538 12.9336 25.9697C13.2061 26.1343 13.4726 26.2889 13.7246 26.4365V23.7939H19.7119C24.1732 23.7938 27.9998 19.8197 28 14.6484H31C30.9998 21.2346 26.062 26.7938 19.7119 26.7939H16.7246V31.4971L14.5215 30.3291L14.5205 30.3281L14.5029 30.3193C14.4914 30.3132 14.4747 30.3035 14.4531 30.292C14.4099 30.2688 14.3468 30.2349 14.2666 30.1914C14.1059 30.1042 13.8747 29.9778 13.5908 29.8193C13.0234 29.5026 12.2408 29.056 11.3818 28.5371C9.70094 27.5217 7.59632 26.1521 6.28223 24.9043C3.8559 22.6001 1.0002 19.2056 1 14.6484C1.00017 8.06218 5.93796 2.50402 12.2881 2.50391H19.7119V5.50391Z"/>
<path d="M27.9951 5.49512H31V8.49512H27.9951V11.5H24.9951V8.49512H22V5.49512H24.9951V2.5H27.9951V5.49512Z"/>
</svg>
