<svg width="32" height="32" viewBox="0 0 32 32" fill="none" xmlns="http://www.w3.org/2000/svg">
<path d="M12.7316 1.52319C15.8513 0.818469 19.1157 1.14145 22.0372 2.44312C22.7936 2.78039 23.134 3.66704 22.797 4.42358C22.4599 5.18016 21.5732 5.52022 20.8165 5.18335C18.4859 4.14488 15.8815 3.88774 13.3927 4.44995C10.9039 5.01227 8.66291 6.36391 7.005 8.30347C5.34708 10.2432 4.36041 12.6674 4.1925 15.2136C4.02461 17.7599 4.6845 20.2927 6.07336 22.4333C7.46223 24.5738 9.5061 26.2083 11.8995 27.0925C14.293 27.9767 16.9087 28.0631 19.3556 27.3396C21.8024 26.616 23.9509 25.1215 25.4786 23.0779C27.0063 21.0343 27.8325 18.5512 27.8341 15.9998V14.7732C27.8341 13.9448 28.5057 13.2732 29.3341 13.2732C30.1622 13.2736 30.8341 13.945 30.8341 14.7732V16.0007C30.8323 19.1993 29.7961 22.3119 27.881 24.8738C25.9658 27.4356 23.2734 29.3096 20.2062 30.2166C17.1389 31.1235 13.8599 31.0144 10.8595 29.906C7.85945 28.7975 5.29764 26.7491 3.55676 24.0662C1.8158 21.3828 0.988895 18.2081 1.19934 15.0164C1.4098 11.8247 2.64657 8.78675 4.72473 6.35522C6.80297 3.92377 9.6116 2.22811 12.7316 1.52319Z" fill="#0F172A"/>
<path d="M29.333 5.33301L30.3945 6.39355L17.0615 19.7402L16.0293 20.7725L14.9688 19.7686L8.96875 14.0889L10 13L11.0312 11.9102L15.9697 16.5859L28.2725 4.27246L29.333 5.33301Z" fill="#0F172A"/>
</svg>
