<svg width="32" height="32" viewBox="0 0 32 32" fill="none" xmlns="http://www.w3.org/2000/svg">
<path d="M5 24.5C5.00009 25.8806 6.11934 27 7.5 27H12V30H7.5C4.46249 30 2.00009 27.5375 2 24.5V20H5V24.5Z" fill="black"/>
<path d="M30 24.5C29.9999 27.5374 27.5374 29.9999 24.5 30H20V27H24.5C25.8806 26.9999 26.9999 25.8806 27 24.5V20H30V24.5Z" fill="black"/>
<path d="M12 5.00098H7.5C6.11929 5.00098 5 6.12027 5 7.50098V12H2V7.50098C2 4.46341 4.46244 2.00098 7.5 2.00098H12V5.00098Z" fill="black"/>
<path d="M24.5 2C27.5375 2.00008 30 4.46249 30 7.5V12H27V7.5C27 6.11934 25.8806 5.00008 24.5 5H20V2H24.5Z" fill="black"/>
</svg>
